<svg width="200" height="200" viewBox="0 0 200 200" fill="none" xmlns="http://www.w3.org/2000/svg">
<rect width="200" height="200" fill="white"/>
<path fill-rule="evenodd" clip-rule="evenodd" d="M18 31V170H144.5V142.75H152.5V173C152.5 175.761 150.261 178 147.5 178H15C12.2386 178 10 175.761 10 173V28C10 25.2386 12.2386 23 15 23H48.5C51.2614 23 53.5 25.2386 53.5 28V102.969L98.9454 75.9595C102.278 73.9786 106.5 76.3805 106.5 80.2576V102.413L144.675 76.2713C147.993 73.999 152.5 76.3751 152.5 80.3968V111.5H144.5V86.0871L106.325 112.229C103.007 114.501 98.5 112.125 98.5 108.103V85.5305L53.0546 112.541C49.7216 114.521 45.5 112.12 45.5 108.242V31H18Z" fill="#20459A"/>
<path fill-rule="evenodd" clip-rule="evenodd" d="M161 127.5C161 134.127 155.627 139.5 149 139.5C142.373 139.5 137 134.127 137 127.5C137 120.873 142.373 115.5 149 115.5C155.627 115.5 161 120.873 161 127.5ZM164.392 140.271C160.724 144.688 155.19 147.5 149 147.5C137.954 147.5 129 138.546 129 127.5C129 116.454 137.954 107.5 149 107.5C160.046 107.5 169 116.454 169 127.5C169 129.488 168.71 131.407 168.17 133.219L188.378 143.969C190.329 145.006 191.069 147.428 190.031 149.378C188.994 151.329 186.572 152.069 184.622 151.031L164.392 140.271Z" fill="#E9222E"/>
</svg>
